<svg t="1595813805069" class="icon" viewBox="0 0 1024 1024" version="1.1" xmlns="http://www.w3.org/2000/svg" p-id="27470" width="200" height="200"><path d="M865.103448 940.585707l-63.968016 5.629186v17.3993c0 35.822089-28.657671 62.432784-63.968016 59.362319l-578.270864-46.568716c-10.234883-1.023488-19.958021-4.605697-28.657671-9.723138-20.981509-8.69965-35.310345-29.169415-35.310345-54.244878V101.837081c0-35.822089 28.657671-67.550225 63.968016-70.620689l705.695152-30.704648c35.310345-3.070465 63.968016 23.54023 63.968016 58.850575V869.965017c0.511744 35.822089-28.145927 67.550225-63.456272 70.62069zM295.532234 573.153423l86.484758 95.696152c11.770115 13.305347 31.216392 13.305347 43.49825 0L598.996502 477.457271c11.770115-13.305347 11.770115-34.798601 0-48.103948s-31.216392-13.305347-43.498251 0l-151.476262 167.852074-64.991504-71.644178c-11.770115-13.305347-31.216392-13.305347-43.498251 0-11.770115 13.305347-11.770115 34.798601 0 47.592204zM865.103448 129.983008c0-35.822089-28.657671-62.432784-63.968016-59.362318L223.376312 90.066967c-26.098951 2.558721-48.615692 19.958021-58.338831 43.49825l571.618191 46.568716c35.310345 3.070465 63.968016 34.286857 63.968016 70.108946v630.980509c35.310345-3.070465 63.968016-34.798601 63.968016-70.620689l0.511744-680.619691z" p-id="27471"></path></svg>