<svg t="1597373512310" class="icon" viewBox="0 0 1024 1024" version="1.1" xmlns="http://www.w3.org/2000/svg" p-id="2565" width="200" height="200"><path d="M582.73008 479.2c-2.41-1.05-5-1.82-7.39-2.83C640.52008 428.3 683.00008 351.2 683.00008 264 683.00008 118.2 564.79008 0 419.00008 0S155.00008 118.2 155.00008 264c0 86.65 41.93 163.31 106.41 211.44C108.11008 537.72 0.00008 688.06 0.00008 863.7a417.17 417.17 0 0 0 21.5 132.45c5.66 17 22.28 27.85 40.15 27.85 28.72 0 49.8-27.91 40.71-55.15C85.12008 917.18 80.19008 860 91.19008 800.56c24.63-133 132.11-240.45 265.22-264.78 69-12.63 135.22-3.75 193.08 21 15.8 6.75 34.08 2 45.65-10.72l0.57-0.63c18.93-20.84 12.79-54.95-12.98-66.23zM419.00008 85.33c98.52 0 178.67 80.15 178.67 178.67S517.50008 442.67 419.00008 442.67 240.32008 362.52 240.32008 264 320.47008 85.33 419.00008 85.33z m370.3 468.84C910.51008 599.63 984.06008 745 921.05008 862.72L767.29008 708.19 826.00008 649.27l-36.71-36.54c-20.26 19.84-52.45 24.07-74.16 15.32L598.26008 745l66.18 66 44.12-44 153.7 154.28c-75.21 41.31-179.48 28.29-256.43-51.67l-37.26 37.16c11.17 15.48 20.52 29.5 32.15 41.26a54.54 54.54 0 0 1-4.27 3.92c-2-0.32-4.28-1.08-6.34-1.08-19.82 0-35.83 17.26-35.83 37.11a36.06 36.06 0 0 0 36 36c19.83 0 36.8-16.31 36.8-36.14a35.81 35.81 0 0 0-0.92-6.61l5.72-5.63c88.47 59.69 185.43 67.13 289.75 4.67l43.08 43.26 59-58.19-43.35-43.83c124.42-187.58-41.49-371.85-191-367.36z m0 0" p-id="2566"></path></svg>