<svg t="1597819508556" class="icon" viewBox="0 0 1024 1024" version="1.1" xmlns="http://www.w3.org/2000/svg" p-id="3879" width="200" height="200"><path d="M608.138768 632.784042a325.051171 325.051171 0 0 0 313.949697-315.725933A325.051171 325.051171 0 0 0 608.138768 0H101.911535v998.688638h196.274068v-365.904596z m0-447.16739a133.217693 133.217693 0 0 1 118.563747 130.553339 135.882047 135.882047 0 0 1-130.553339 133.217693H298.185603V185.616652z m0 0" p-id="3880"></path><path d="M881.235039 843.712056c-30.19601-21.314831-26.19948-58.615785-37.300954-80.818734s-142.098873-26.643539-191.833478-27.087598c-49.734605 0-180.732003 4.884649-191.833478 27.087598s-7.993062 57.727667-38.189072 80.818734-27.087598 35.080659-18.206418 68.385082S412.752819 976.929748 438.952298 976.929748v30.196011c0 15.098005 21.75889 16.430182 25.755421 16.430182s25.755421-4.884649 25.755421-15.986123V976.929748H812.405898v30.196011c0 11.101474 21.75889 15.986123 25.75542 15.986123s25.755421 0 25.755421-16.430182V976.929748c23.979185 0 26.19948-33.748482 35.080659-67.052905s11.545533-47.070252-18.206418-68.385082z m-435.177797 51.066782a19.982654 19.982654 0 1 1 0-38.633131 19.982654 19.982654 0 1 1 0 38.633131z m333.488291 31.084128H524.211622c-27.087598 0-20.426713-20.870772-20.426713-20.870772h296.631396s6.660885 20.870772-20.426713 20.870772z m48.402429-102.577623H475.809193c-6.660885-33.304423 9.325239-44.405898 9.325239-44.405898 23.979185-19.094536 141.210755-23.979185 166.522116-24.867303s142.542931 5.772767 166.522116 24.867303c0 0 15.986123 9.769297 9.325239 44.405898z m28.863833 69.717259a19.982654 19.982654 0 1 1 24.423244-19.094536 22.202949 22.202949 0 0 1-24.423244 19.094536z m0 0" p-id="3881"></path></svg>