<svg t="1597819544704" class="icon" viewBox="0 0 1024 1024" version="1.1" xmlns="http://www.w3.org/2000/svg" p-id="4659" width="200" height="200"><path d="M282.624 197.632c7.168-8.192 11.264-19.456 11.264-34.816s-4.096-25.6-14.336-32.768c-9.216-6.144-24.576-9.216-45.056-9.216h-37.888v89.088h44.032c20.48-1.024 34.816-5.12 41.984-12.288z" p-id="4660"></path><path d="M144.384 340.992H337.92c25.6 0 47.104-21.504 47.104-47.104V100.352c0-26.624-21.504-47.104-47.104-47.104H144.384c-25.6 0-47.104 21.504-47.104 47.104v193.536c0 25.6 20.48 47.104 47.104 47.104z m15.36-254.976H235.52c33.792 0 58.368 6.144 73.728 19.456 15.36 13.312 23.552 32.768 23.552 59.392 0 26.624-8.192 47.104-23.552 59.392-16.384 12.288-39.936 18.432-72.704 18.432h-38.912v65.536h-37.888V86.016z" p-id="4661"></path><path d="M962.56 547.84l-36.864-214.016c-12.288-73.728-75.776-126.976-150.528-126.976H407.552V286.72H491.52v23.552h-27.648c-15.36 0-27.648 12.288-27.648 28.672 0 15.36 12.288 27.648 27.648 27.648h96.256c15.36 0 27.648-12.288 27.648-27.648 0-15.36-12.288-28.672-27.648-28.672H532.48V286.72h243.712c35.84 0 65.536 25.6 71.68 60.416L880.64 538.624H143.36l30.72-177.152H93.184L61.44 547.84c-35.84 16.384-61.44 52.224-61.44 95.232v190.464c0 11.264 9.216 19.456 19.456 19.456H51.2v91.136c0 21.504 17.408 37.888 37.888 37.888H153.6c21.504 0 37.888-17.408 37.888-37.888v-91.136h641.024v91.136c0 21.504 17.408 37.888 37.888 37.888h63.488c21.504 0 37.888-17.408 37.888-37.888v-91.136H1003.52c11.264 0 19.456-9.216 19.456-19.456V643.072c1.024-41.984-24.576-78.848-60.416-95.232zM182.272 761.856c-35.84 0-65.536-29.696-65.536-65.536 0-35.84 29.696-65.536 65.536-65.536s65.536 29.696 65.536 65.536c0 35.84-29.696 65.536-65.536 65.536z m529.408-110.592l-79.872 105.472c-2.048 3.072-6.144 5.12-10.24 5.12H402.432c-4.096 0-7.168-2.048-10.24-5.12l-79.872-105.472c-6.144-8.192 0-20.48 10.24-20.48h379.904c10.24 0 15.36 12.288 9.216 20.48z m130.048 110.592c-35.84 0-65.536-29.696-65.536-65.536 0-35.84 29.696-65.536 65.536-65.536 35.84 0 65.536 29.696 65.536 65.536 0 35.84-29.696 65.536-65.536 65.536z" p-id="4662"></path></svg>