<svg t="1597373614198" class="icon" viewBox="0 0 1024 1024" version="1.1" xmlns="http://www.w3.org/2000/svg" p-id="4160" width="200" height="200"><path d="M511.6 64c231.1 86.7 371.3 363.7 251.1 588.2l-293-294.6 111.9-112.3-70-69.7c-38.6 37.8-100 45.9-141.4 29.2l-222.8 223 126.2 125.7 84.1-83.8 293 294.1c-143.4 78.8-342.1 53.9-488.8-98.5l-71 70.8c21.3 29.5 39.1 56.2 61.3 78.7-1.9 2.3-8 7.3-8.1 7.5-3.7-0.6-8.1-2.1-12.1-2.1-37.8 0-68.3 32.9-68.3 70.7s30.8 68.6 68.6 68.6 70.1-31.1 70.1-68.9c0-4.4-1-8.4-1.8-12.6l10.9-10.7c168.6 113.8 353.5 128 552.3 8.9l82.1 82.5 112.4-110.9-82.6-83.5C1113 406.7 796.7 55.5 511.6 64z" p-id="4161"></path></svg>