<svg t="1597373788892" class="icon" viewBox="0 0 1152 1024" version="1.1" xmlns="http://www.w3.org/2000/svg" p-id="6785" width="200" height="200"><path d="M1015.134199 0H292.571429C230.510823 0 172.883117 53.194805 172.883117 115.255411v700.398269H26.597403v93.090909c0 62.060606 48.761905 115.255411 110.82251 115.255411H833.385281c57.627706-4.4329 110.822511-53.194805 110.822511-110.822511v-709.264069h186.181818v-88.658009c0-62.060606-53.194805-115.255411-115.255411-115.255411zM146.285714 953.073593c-26.597403 0-44.329004-22.164502-44.329004-48.761905v-26.597402H664.935065v26.597402c0 17.731602 0 31.030303 4.4329 48.761905H146.285714z m718.12987-48.761905c0 26.597403-22.164502 48.761905-44.329004 48.761905h-79.792208c-4.4329-13.298701-8.865801-31.030303-8.865801-48.761905v-93.090909h-487.619047V115.255411c0-26.597403 22.164502-48.761905 44.329004-48.761905h571.844156v837.818182h4.4329z m186.181819-766.891775H930.909091v-22.164502c0-22.164502 17.731602-44.329004 39.896104-44.329004h31.030303c26.597403 0 44.329004 22.164502 44.329004 48.761905v17.731601zM363.497835 611.74026h239.376624c17.731602 0 35.463203 13.298701 35.463203 35.463203 0 17.731602-13.298701 35.463203-35.463203 35.463204H363.497835c-17.731602 0-35.463203-13.298701-35.463203-35.463204 4.4329-17.731602 17.731602-35.463203 35.463203-35.463203z m0-203.91342h372.363637c17.731602 0 35.463203 13.298701 35.463203 35.463203 0 17.731602-13.298701 35.463203-35.463203 35.463204H363.497835c-17.731602 0-35.463203-13.298701-35.463203-35.463204 4.4329-17.731602 17.731602-35.463203 35.463203-35.463203z m0-203.91342h372.363637c17.731602 0 35.463203 13.298701 35.463203 35.463203 0 17.731602-13.298701 35.463203-35.463203 35.463204H363.497835c-17.731602 0-35.463203-13.298701-35.463203-35.463204 4.4329-17.731602 17.731602-35.463203 35.463203-35.463203z" p-id="6786"></path></svg>