<svg t="1595812900707" class="icon" viewBox="0 0 1025 1024" version="1.1" xmlns="http://www.w3.org/2000/svg" p-id="17740" width="200" height="200"><path d="M992.105879 832.106328C924.421917 760.050282 853.327474 691.199577 782.822813 621.836017c-24.065693-23.642589-54.516424-35.899809-84.787656-14.449673-18.501223 13.167537-31.694403 13.411143-42.541274 8.359527l-87.364749-87.351928L673.36686 423.104931c29.245523-26.758179 61.54253-40.951425 102.134956-37.348623 109.250812 9.667306 191.422911-52.567578 213.078189-160.267004 6.718393-33.463751 11.436653-71.325228-20.411606-89.890558s-46.285111 20.757782-65.388938 37.669157c-40.425749 35.899809-89.005884 25.4504-103.4812-24.719583-10.257088-35.52799 22.937414-46.733859 38.746151-67.453177 12.334149-16.154914 35.681846-30.219946 25.565793-52.567578C852.750513 4.320837 825.697442 0.000038 800.836825 0.000038c-110.815018-0.076928-206.795722 105.135155-192.92301 213.667971 5.808076 45.387616-7.692816 81.890029-37.720442 113.725467-22.604058 23.963123-46.55436 46.644109-69.671273 70.158484-8.397991 8.539026-22.296346 24.437513-22.296345 24.437513l-8.244135 8.244135-162.126102-162.126102-1.166744 1.153922c-22.988699-21.411672-43.900338-44.143944-33.579143-83.723483 1.615491-6.192717-5.526006-16.552376-11.205869-22.488667q-45.015796-46.926179-91.582977-92.313794c-15.090741-14.616351-32.963718-17.334479-52.567578-7.282533-67.607033 34.68178-74.812638 76.748663-21.796312 129.77781 19.629503 19.616681 39.182077 39.29747 59.055186 58.683366 11.269976 11.013549 24.50162 24.822154 40.233428 20.103893 36.271629-10.872514 54.606174 12.513648 75.351135 33.335537q44.054194 44.272157 88.287888 88.364816c1.628313 1.641134 3.654088 3.589981 5.436257 5.359329l68.414779 68.414779-11.423832 11.411011s-21.052674 17.731941-29.758378 27.232569c-17.513978 19.232041-37.348623 36.28445-54.875422 55.478026-31.720046 34.733065-70.658517 48.490385-125.982687 43.092593C109.278288 598.757569 20.695509 669.377622 2.386607 779.051538c-5.064437 30.386624-4.166942 63.004165 23.899015 79.851433 29.989162 18.014011 44.605513-15.385632 63.99141-30.309696a72.786863 72.786863 0 0 0 11.103298-10.936621c26.232503-31.066156 52.759898-28.848061 79.030865-0.423105 25.193973 27.296676 28.93781 53.926642-2.397594 80.287359-13.218823 11.116119-25.091402 24.027229-36.425485 37.105017-18.680722 21.539885-12.039257 38.964114 12.372613 48.72117 20.796247 8.321063 42.823344 15.385632 65.914614 10.167338 94.788317-21.270637 184.81991-104.930013 168.934244-220.912039-4.923402-35.899809 4.628511-68.966098 30.668694-95.57042 15.949772-16.321592 32.245721-32.32265 48.426278-48.426279l62.965701-62.978522L616.54259 651.325146c6.038861 9.821162 7.269711 21.796313-4.359262 39.079507-23.796445 35.399776-12.82136 66.491575 13.988104 93.59593 68.260923 69.107132 135.90642 138.932261 206.641865 205.475122 52.836826 49.682771 93.736966 45.015796 148.163641-9.308308 54.785673-54.657459 60.119359-95.890954 11.128941-148.061069z m-325.662554-629.823687c-4.731082-70.773909 24.988831-108.904635 96.455094-135.316637C729.806488 117.661663 735.678671 176.127066 773.129865 217.963165c33.604786 37.5153 99.378364 46.823608 157.215521 19.232041-21.424493 53.580465-56.64477 96.083275-109.084134 91.031658-60.427072-5.756791-109.23799 7.974886-152.086977 33.848392l-32.297007-32.297007c23.104091-36.374199 32.912432-78.274405 29.617342-127.52125z m-335.304217 591.064714c4.820832 71.799618-22.078383 105.404404-96.839735 135.521779 35.797238-53.234288 30.130197-108.032783-10.257088-151.484373-40.041108-43.143878-99.519399-50.900801-151.638229-19.783359C83.430426 706.841637 124.920348 661.582234 172.679915 666.710779c74.748531 8.051814 133.82936-12.949574 184.460912-51.990617l24.475977 24.463156c-37.6948 42.233561-54.593353 92.159938-50.42641 154.087109z m564.627069 100.814357a47.605711 47.605711 0 1 1 0-67.324964 47.733925 47.733925 0 0 1 0.051285 67.248036z"  p-id="17741"></path></svg>