<svg t="1598601509785" class="icon" viewBox="0 0 1024 1024" version="1.1" xmlns="http://www.w3.org/2000/svg" p-id="2318" width="200" height="200"><path d="M669.291395 549.626589V154.00407a154.00407 154.00407 0 0 0-308.008139 0v395.622519a261.413868 261.413868 0 1 0 413.059639 212.389835 258.984106 258.984106 0 0 0-105.0515-212.389835zM508.927065 950.680342A187.949282 187.949282 0 0 1 322.264128 761.873497a182.94683 182.94683 0 0 1 36.446439-108.481753h139.068176a19.009319 19.009319 0 0 0 0-38.018638h-101.47832a195.524424 195.524424 0 0 1 20.724445-14.292721l17.580047-10.576614v-51.025014h63.173828a17.294192 17.294192 0 1 0 0-34.588385h-63.173828v-34.588385h63.173828a17.294192 17.294192 0 1 0 0-34.588385h-63.173828v-41.448891h63.173828a17.294192 17.294192 0 1 0 0-34.588385h-63.173828v-34.588385h63.173828a17.294192 17.294192 0 1 0 0-34.588385h-63.173828v-41.448891h63.173828a17.294192 17.294192 0 1 0 0-34.588385h-63.173828v-60.029429a81.325583 81.325583 0 0 1 162.651166 0v436.356774l17.294193 10.576614a180.945849 180.945849 0 0 1 87.185598 160.936039A190.950753 190.950753 0 0 1 509.355847 950.680342z"  p-id="2319"></path><path d="M392.727243 736.57538a136.495486 136.495486 0 0 0-6.717579 39.019129 125.847409 125.847409 0 1 0 251.694818 0 135.78085 135.78085 0 0 0-6.717579-38.876202z"  p-id="2320"></path></svg>