<svg t="1598002129046" class="icon" viewBox="0 0 1024 1024" version="1.1" xmlns="http://www.w3.org/2000/svg" p-id="1435" width="290" height="290"><path d="M511.014019 1023.696451q-248.801558 0-497.581434 0.303549c-11.426442 0-13.72474-3.27399-13.312781-13.789786 0.823918-20.944863 0.455323-41.911408 0-62.877953 0-6.504616 1.604472-8.97637 8.456001-8.672822 13.009232 0.477005 26.018464-0.151774 39.027695 0.260185 6.743118 0.195138 10.429068-1.431015 9.344965-8.954688a55.332599 55.332599 0 0 1 0-7.588719q0-454.217329-0.21682-908.478021c0-10.472432 1.842975-13.898196 13.31278-13.876514q271.025663 0.650462 542.051326 0c11.144575 0 13.638011 2.883713 13.572965 13.703058-0.477005 76.602693 0 153.227069-0.520369 229.829762 0 10.841027 3.122216 12.879139 13.291098 12.835775 105.526552-0.390277 211.031422 0 316.557974-0.477005 10.212247 0 12.315406 2.992123 12.293724 12.618955q-0.390277 328.483103-0.477005 656.966206c0 11.274668 3.078852 14.310155 13.854832 13.464555 11.838401-0.95401 23.850258 0 35.753705-0.325231 5.70238-0.151774 7.458626 1.929703 7.39358 7.523673-0.238503 23.134751-0.368595 46.269501 0 69.382569 0.151774 7.046667-2.515118 8.34759-8.802913 8.282545-23.481663-0.325231-46.963327-0.130092-70.466672-0.130093z m29.3575-510.590666c0-138.396544-0.151774-276.793089 0.260185-415.189634 0-10.841027-3.078852-13.009232-13.291099-12.879139q-185.381553 0.520369-370.763106 0c-10.407385 0-14.071652 1.777928-14.071653 13.377827q0.585415 413.563479 0 827.14864c0 11.556534 3.577539 13.421191 14.049971 13.399509 123.219107-0.346913 246.438215-0.216821 369.657322-0.238503 14.115017 0 14.115017 0 14.115016-13.681375q0.065046-205.979504 0.043364-411.937325z m85.058694 126.818328c0 95.401033 0.130092 190.802067-0.195138 286.2031 0 9.71356 2.168205 13.009232 12.532226 12.857457q115.456932-0.672144 230.892183 0c9.540103 0 12.879139-1.929703 12.857457-12.337088q-0.477005-286.723469 0-573.425256c0-9.171508-1.842975-12.35877-11.795036-12.315406q-115.977302 0.672144-231.997968 0c-10.385703 0-12.488863 3.317354-12.46718 13.009231 0.303549 95.205895 0.173456 190.606928 0.173456 286.007962z" p-id="1436"></path><path d="M455.421236 299.51588c0 11.534852-0.151774 23.069704 0 34.691285 0 5.008554-1.626154 7.090031-6.851529 7.046667q-36.230711-0.216821-72.483103 0c-5.463877 0-6.634708-2.580164-6.504616-7.306851 0-23.438299 0.173456-46.898281 0-70.314898 0-5.615652 1.821292-7.545354 7.480308-7.480309 23.850258 0.216821 47.592106 0.260185 71.399001 0 6.005929 0 7.241806 2.493436 7.133395 7.762175-0.346913 11.751673-0.173456 23.698484-0.173456 35.601931zM411.31994 568.590158c-11.187939 0-22.354197-0.238503-33.520454 0-5.854154 0.173456-8.412637-1.409333-8.325909-7.805539q0.455323-34.691285 0-69.209113c0-6.092657 1.908021-8.109088 8.065724-8.02236 23.416617 0.281867 46.854917 0.216821 70.271534 0 5.333785 0 7.783857 1.279241 7.718811 7.198442q-0.390277 35.16829 0 70.293216c0 5.59397-1.777928 7.653765-7.436944 7.523672-12.272042-0.195138-24.522402 0.021682-36.772762 0.021682zM413.076186 711.258067c11.166257 0 22.354197 0.260185 33.520454 0 6.136021-0.216821 9.08478 1.105785 8.97637 8.195816-0.390277 23.069704-0.281867 46.139409 0 69.209114 0 5.463877-1.452698 7.675447-7.28517 7.632082q-35.688659-0.390277-71.377318 0c-5.789108 0-7.39358-2.168205-7.350216-7.632082 0.216821-23.048022 0.325231-46.139409 0-69.187432-0.130092-7.068349 2.840349-8.434319 9.019734-8.23918 11.40476 0.238503 22.896248 0.021682 34.496146 0.021682z" p-id="1437"></path><path d="M228.019863 297.347675c0-11.166257 0.173456-22.332515 0-33.498772 0-5.160329 0.910646-7.870585 7.003304-7.805539 23.850258 0.281867 47.548742 0.238503 71.333954 0 5.247057 0 6.786483 1.973067 6.743119 6.981621q-0.260185 35.666977 0 71.333955c0 5.225375-2.168205 6.829847-7.046668 6.786482q-35.645295-0.216821-71.312272 0c-5.312103 0-6.786483-2.168205-6.699754-7.111713-0.021682-12.185314-0.021682-24.435674-0.021683-36.686034zM271.38397 483.813331c11.556534 0 23.134751 0.195138 34.691284 0 5.182011-0.130092 6.916575 1.79961 6.873211 6.894893q-0.260185 35.233336 0 70.44499c0 5.420513-1.431015 7.718811-7.28517 7.653765q-35.233336-0.390277-70.44499 0c-5.745744 0-7.436944-1.951385-7.39358-7.523672 0.238503-23.113069 0.368595-46.226137 0-69.38257-0.130092-7.155077 2.818667-8.369272 8.954688-8.174134 11.469806 0.281867 23.02634 0.086728 34.604557 0.086728zM312.840055 754.838994c0 10.841027-0.260185 21.682053 0 32.523079 0.195138 6.136021-1.040739 9.106462-8.174134 8.97637-23.113069-0.411959-46.247819-0.281867-69.38257 0-5.420513 0-7.697129-1.365969-7.6104-7.241805q0.390277-35.233336 0-70.444991c0-5.81079 2.168205-7.371898 7.588718-7.328534 23.113069 0.216821 46.226137 0.346913 69.38257 0 7.111713-0.10841 8.390955 2.840349 8.217498 8.998052-0.281867 11.318032-0.021682 22.896248-0.021682 34.517829zM796.198063 526.093334c0 11.556534-0.281867 23.134751 0.130092 34.691285 0.216821 6.266113-2.168205 8.000678-8.109088 7.935632-23.113069-0.281867-46.247819-0.238503-69.382569 0-5.398831 0-7.740493-1.365969-7.675447-7.263488q0.390277-35.233336 0-70.44499c0-5.832472 2.168205-7.371898 7.610401-7.306852 23.113069 0.216821 46.226137 0.346913 69.382569 0 7.111713-0.130092 8.412637 2.731939 8.195816 8.911324-0.411959 11.079529-0.151774 22.289151-0.151774 33.477089zM754.893752 711.258067c10.841027 0 21.682053 0.260185 32.523079 0 6.114339-0.216821 9.08478 1.019056 8.954688 8.174134-0.411959 23.113069-0.281867 46.226137 0 69.38257 0 5.550606-1.604472 7.588719-7.371898 7.523672q-35.189972-0.390277-70.423308 0c-5.81079 0-7.371898-2.168205-7.328534-7.588718 0.216821-23.113069 0.260185-46.247819 0-69.38257 0-6.027611 1.734564-8.325908 7.957314-8.109088 11.838401 0.216821 23.76353 0 35.688659 0z" p-id="1438"></path></svg>