<svg t="1598492625995" class="icon" viewBox="0 0 1024 1024" version="1.1" xmlns="http://www.w3.org/2000/svg" p-id="4843" width="200" height="200"><path d="M594.346667 706.346667H173.013333a128 128 0 0 0 0 256h421.333334a128 128 0 0 0 0-256z m0 213.333333H173.013333a85.333333 85.333333 0 0 1 0-170.666667h421.333334a85.333333 85.333333 0 0 1 0 170.666667z" p-id="4844"></path><path d="M237.013333 834.346667m-42.666666 0a42.666667 42.666667 0 1 0 85.333333 0 42.666667 42.666667 0 1 0-85.333333 0Z" p-id="4845"></path><path d="M386.346667 834.346667m-42.666667 0a42.666667 42.666667 0 1 0 85.333333 0 42.666667 42.666667 0 1 0-85.333333 0Z" p-id="4846"></path><path d="M535.68 834.346667m-42.666667 0a42.666667 42.666667 0 1 0 85.333334 0 42.666667 42.666667 0 1 0-85.333334 0Z" p-id="4847"></path><path d="M871.893333 61.226667L569.813333 406.4l-128-254.72h-204.8v256H164.266667l-76.586667 76.373333v124.373334l76.586667 76.586666h403.413333l288-384v256h-187.733333l133.333333 213.333334H960l23.68-189.44V117.12zM522.666667 407.68h-157.653334v-213.333333h50.986667zM941.013333 576l-18.773333 150.826667h-97.28l-80-128h153.386667v-426.666667l-352 469.333333H181.973333l-51.626666-50.773333v-88.96l51.626666-51.413333h97.706667v-256h42.666667v256h265.813333L882.346667 114.133333l58.666666 29.226667z" p-id="4848"></path></svg>