<svg t="1598581999799" class="icon" viewBox="0 0 1024 1024" version="1.1" xmlns="http://www.w3.org/2000/svg" p-id="1786" width="290" height="290"><path d="M68.96 472.268h887.08v80.126H68.96v-80.126z m78.272 402.656V687.627H68.96v241.39c0 14.538 11.52 26.371 26.09 26.371h260.906v-80.125H147.232v-0.339z m730.536 0V687.627h78.272v241.39c0 14.538-11.52 26.371-26.09 26.371H669.043v-80.125h208.724v-0.339zM147.232 150.076v187.297H68.96V95.983c0-14.538 11.52-26.371 26.09-26.371h260.906v80.125H147.232v0.339z m730.536 0v187.297h78.272V95.983c0-14.538-11.52-26.371-26.09-26.371H669.043v80.125h208.724v0.339z" p-id="1787"></path></svg>