<svg t="1597653769677" class="icon" viewBox="0 0 1024 1024" version="1.1" xmlns="http://www.w3.org/2000/svg" p-id="4170" width="39" height="39"><path d="M704.56450503 449.44242688l126.84878166 0 0 126.8499456-126.84878166 0 0-126.8499456Z" p-id="4171"></path><path d="M197.16821447 195.74369963l126.84878166 0 0 126.84878165-126.84878166 0 0-126.84878165Z" p-id="4172"></path><path d="M387.44080498 195.74369963l126.84878165 0 0 126.84878165-126.84878165 0 0-126.84878165Z" p-id="4173"></path><path d="M197.16821447 449.44242688l126.84878166 0 0 126.8499456-126.84878166 0 0-126.8499456Z" p-id="4174"></path><path d="M387.44080498 449.44242688l126.84878165 0 0 126.8499456-126.84878165 0 0-126.8499456Z" p-id="4175"></path><path d="M197.16821447 703.14115413l126.84878166 0 0 126.84878166-126.84878166 0 0-126.84878166Z" p-id="4176"></path><path d="M387.44080498 703.14115413l126.84878165 0 0 126.84878166-126.84878165 0 0-126.84878166Z" p-id="4177"></path><path d="M704.56450503 703.14115413l126.84878166 0 0 126.84878166-126.84878166 0 0-126.84878166Z" p-id="4178"></path><path d="M987.68380473 955.04337465l-29.42173639 0L958.26206834 354.36609309c0-25.45614734-9.97102251-49.36378141-27.93376655-67.26365412-17.96274403-17.96274403-41.87037923-27.87205917-67.20311068-27.87205916L641.13953223 259.23037981 641.13953223 100.66852978c0-25.45614734-9.97102251-49.36378141-27.93376654-67.26481807-17.96158009-17.96158009-41.87037923-27.87089522-67.20311068-27.87089521L165.4551461 5.5328165c-25.33389653 0-49.24153059 9.91047907-67.20311069 27.81035179-18.02445141 17.89987157-27.93493163 41.80750677-27.93493162 67.32652544l0 854.37484486-34.00323755 0c-17.52962617 0-31.71190443 14.18460615-31.71190443 31.71190443s14.18344221 31.71190443 31.71190443 31.71190443l951.36993735 0c17.52846222 0 31.71190443-14.18460615 31.71190443-31.71190443S1005.21226695 955.04337465 987.68380473 955.04337465zM863.12635506 322.65418866c8.42251037 0 16.41423189 3.2833115 22.48370176 9.35278251 5.94605511 5.94605511 9.22936661 13.87374023 9.22936661 22.35912192l0 600.67728156L641.13953223 955.04337465 641.13953223 322.65418866 863.12635506 322.65418866zM133.74324167 100.66852978c0-8.48538283 3.28214755-16.41423189 9.22820267-22.42199439 6.07063495-6.00776249 13.99831893-9.28991005 22.48486571-9.28991004L546.00265501 68.95662535c8.42367431 0 16.41423189 3.28214755 22.4848657 9.35278251 5.94489003 5.94489003 9.22820267 13.87374023 9.22820267 22.35912192l0 158.56185003 0 695.81415878L133.74324167 955.04453859 133.74324167 100.66852978z" p-id="4179"></path></svg>