<svg t="1598492466696" class="icon" viewBox="0 0 1024 1024" version="1.1" xmlns="http://www.w3.org/2000/svg" p-id="3380" width="200" height="200"><path d="M844.63 778.942v-435.38c0-92.234-74.757-167.076-166.935-167.076h-435.03c23.015-64.743 84.176-111.382 156.76-111.382h389.578c92.206 0 166.963 74.8 166.963 167.093v389.87c0 72.64-46.638 133.86-111.337 156.875z m-55.627-379.666v389.868c0 92.293-74.785 167.138-166.962 167.138H232.432c-92.206 0-166.933-74.845-166.933-167.138V399.276c0-92.294 74.727-167.079 166.933-167.079h389.609c92.177 0 166.962 74.785 166.962 167.079zM176.807 789.144c0 30.784 24.9 55.713 55.625 55.713h389.609c30.726 0 55.654-24.929 55.654-55.713V454.988H176.807v334.156z m55.625-501.236c-30.726 0-55.625 24.929-55.625 55.655 0 30.784 24.9 55.713 55.625 55.713 30.756 0 55.655-24.93 55.655-55.713 0-30.725-24.9-55.655-55.655-55.655z" p-id="3381"></path></svg>