<svg t="1597656348828" class="icon" viewBox="0 0 1024 1024" version="1.1" xmlns="http://www.w3.org/2000/svg" p-id="1799" width="200" height="200"><path d="M307.904 654.08a37.76 37.76 0 0 0 39.68 36.48 156.16 156.16 0 0 0 34.56 0 101.76 101.76 0 0 1 87.04 155.52 201.6 201.6 0 0 0-17.92 32.64 30.08 30.08 0 0 0 0 29.44 100.48 100.48 0 0 0 72.96 51.84c27.52 5.12 35.84-19.2 46.72-38.4s10.88-19.2 17.28-28.16a81.28 81.28 0 0 1 46.08-32 99.2 99.2 0 0 1 123.52 57.6c25.6 48.64 44.16 53.12 90.24 24.32l15.36-10.88a41.6 41.6 0 0 0 12.8-59.52 410.88 410.88 0 0 1-23.68-43.52 99.84 99.84 0 0 1 76.8-135.68h52.48a37.76 37.76 0 0 0 37.12-24.32 135.04 135.04 0 0 0 0-78.08 32.64 32.64 0 0 0-30.08-24.32H960.704a100.48 100.48 0 0 1-86.4-31.36 101.12 101.12 0 0 1-9.6-128c30.08-52.48 24.96-70.4-29.44-97.92l-19.2-8.32a34.56 34.56 0 0 0-42.88 14.72 352.64 352.64 0 0 0-21.76 37.12A98.56 98.56 0 0 1 576.704 349.44a320 320 0 0 0-21.76-37.76 35.84 35.84 0 0 0-53.76-10.24c-25.6 13.44-56.32 23.04-56.96 60.16a64 64 0 0 0 11.52 28.8c6.4 10.88 13.44 22.4 19.2 33.92a102.4 102.4 0 0 1-69.76 137.6 564.48 564.48 0 0 1-56.96 0 38.4 38.4 0 0 0-40.32 36.48 192 192 0 0 0 0 55.68z m355.84-172.8a145.92 145.92 0 1 1-141.44 146.56 145.28 145.28 0 0 1 141.44-146.56zM0.704 365.44a100.48 100.48 0 0 0 10.24 33.28 26.88 26.88 0 0 0 34.56 17.28 128 128 0 0 1 42.88-10.24 71.04 71.04 0 0 1 64 94.08c-9.6 35.84-3.2 47.36 29.44 56.32s45.44 0 53.12-33.28v-8.32a67.84 67.84 0 0 1 115.2-34.56l19.2 17.92a24.32 24.32 0 0 0 30.08 0 45.44 45.44 0 0 0 13.44-81.28 68.48 68.48 0 0 1-24.96-64 69.76 69.76 0 0 1 58.88-64c33.92-8.96 39.68-21.12 29.44-54.4s-21.12-40.32-53.76-29.44A67.84 67.84 0 0 1 346.944 192a74.88 74.88 0 0 1-17.92-80c0-12.16 9.6-25.6 0-35.84A69.12 69.12 0 0 0 272.064 64c-19.2 0-20.48 19.84-24.32 34.56a144 144 0 0 1 0 14.08 67.84 67.84 0 0 1-111.36 32c-7.68-5.76-16.64-12.8-24.32-16.64a24.96 24.96 0 0 0-30.08-3.84 45.44 45.44 0 0 0-13.44 81.92 69.12 69.12 0 0 1-26.24 119.04l-19.2 5.76a28.8 28.8 0 0 0-22.4 34.56zM241.344 211.2A99.2 99.2 0 0 1 339.904 311.04a100.48 100.48 0 0 1-98.56 101.12 100.48 100.48 0 0 1-98.56-100.48A99.2 99.2 0 0 1 241.344 211.2z"p-id="1800"></path></svg>