<svg t="1598490826654" class="icon" viewBox="0 0 1024 1024" version="1.1" xmlns="http://www.w3.org/2000/svg" p-id="2303" width="200" height="200"><path d="M679.253333 426.666667v40.874666c0 43.733333-17.109333 85.76-47.701333 117.034667l-37.546667 38.4a7.253333 7.253333 0 0 0-2.048 5.12v5.973333c0 2.56 1.493333 4.949333 3.84 6.144l242.432 119.04c27.392 13.397333 44.8 41.301333 44.8 71.808v11.349334c0 38.4-31.146667 69.461333-69.461333 69.461333H210.261333a69.589333 69.589333 0 0 1-69.333333-65.28l-0.128-4.181333v-11.349334c0-28.501333 15.189333-54.869333 40.448-69.546666l4.309333-2.304 242.474667-119.04c2.133333-1.024 3.541333-3.072 3.712-4.266667l0.128-1.834667v-5.973333a8.576 8.576 0 0 0-0.768-3.584l-1.28-1.536-37.546667-38.4a167.68 167.68 0 0 1-47.573333-109.824l-0.170667-7.210667V426.666667h334.72z m-168.533333-341.333334c14.464 0 28.202667 7.253333 40.704 20.437334a218.794667 218.794667 0 0 1 177.194667 205.952l0.170666 9.258666h4.608a27.776 27.776 0 0 1 27.434667 23.722667l0.256 4.096-0.256 4.096a27.776 27.776 0 0 1-22.869333 23.338667l-4.565334 0.426666H288a27.733333 27.733333 0 0 1-27.349333-23.765333L260.266667 348.8l0.298666-4.096c1.706667-11.904 11.008-21.333333 22.826667-23.338667l4.565333-0.384h4.608a218.88 218.88 0 0 1 177.365334-215.253333c12.501333-13.098667 26.282667-20.394667 40.746666-20.394667z "p-id="2304"></path></svg>