<svg t="1598600968388" class="icon" viewBox="0 0 1024 1024" version="1.1" xmlns="http://www.w3.org/2000/svg" p-id="1520" width="200" height="200"><path d="M272.192 56.896A151.36 151.36 0 0 0 120.96 208.192v493.824a151.36 151.36 0 0 0 151.296 151.296h493.824a151.36 151.36 0 0 0 151.296-151.296V208.192A151.36 151.36 0 0 0 766.08 56.96H272.192z m0-56.896h493.824a208.192 208.192 0 0 1 208.192 208.192v493.824a208.192 208.192 0 0 1-208.192 208.192H272.192A208.192 208.192 0 0 1 64 702.08V208.192A208.192 208.192 0 0 1 272.192 0z m19.392 625.792h455.04a56.896 56.896 0 1 1 0 113.792h-455.04a56.896 56.896 0 1 1 0-113.792z m-56.96 227.52h568.96v56.96c0 62.784-50.944 113.728-113.792 113.728H348.416a113.792 113.792 0 0 1-113.728-113.792v-56.896z m291.2-235.264a142.08 142.08 0 0 1-125.76-207.424c18.176 24.32 41.344 36.48 69.376 36.48 42.048 0 63.872-48 113.6-48 49.728 0 84.608 54.272 84.608 77.12a141.952 141.952 0 0 1-141.76 141.824z m0-0.512a142.08 142.08 0 0 1-125.76-207.488l118.016-213.504a8.896 8.896 0 0 1 15.552 0l117.888 213.312A141.952 141.952 0 0 1 525.888 617.6z m0-360.128L438.656 418.432a122.56 122.56 0 0 0-13.952 57.216c0 68.48 32.768 124.16 101.248 124.16s101.184-55.68 101.184-124.16c0-20.288-4.672-39.552-14.08-57.408L525.888 257.408z"  p-id="1521"></path></svg>