<svg t="1598580128733" class="icon" viewBox="0 0 1024 1024" version="1.1" xmlns="http://www.w3.org/2000/svg" p-id="1910" width="200" height="200"><path d="M704 384l294.4 409.6c12.8 25.6 25.6 57.6 25.6 89.6 0 76.8-44.8 140.8-166.4 140.8H166.4C38.4 1024 0 960 0 883.2c0-32 6.4-64 25.6-89.6l134.4-198.4L320 384c6.4-57.6 0-121.6 0-192V128c0-19.2 6.4-51.2 0-64-19.2 0-64 6.4-64-19.2V38.4c0-19.2 19.2-38.4 38.4-38.4h435.2c19.2 0 38.4 19.2 38.4 38.4v6.4c0 25.6-44.8 19.2-64 19.2-6.4 12.8 0 44.8 0 64v256z m-44.8 51.2C633.6 396.8 640 275.2 640 192V64H384v128c0 89.6 6.4 198.4-25.6 243.2l-268.8 409.6c-6.4 12.8-12.8 25.6-12.8 38.4 6.4 12.8-12.8 76.8 51.2 76.8h768c32 0 44.8-64 44.8-76.8 0-12.8-6.4-25.6-12.8-38.4l-268.8-409.6z m179.2 460.8H192v-64c0-6.4-6.4 6.4 0 0l192-320h256l192 320c6.4 6.4 25.6 64 6.4 64z m0 0" p-id="1911"></path></svg>