<svg t="1598492528818" class="icon" viewBox="0 0 1024 1024" version="1.1" xmlns="http://www.w3.org/2000/svg" p-id="4198" width="200" height="200"><path d="M825.6 668.9c-40.8-48.9-95.3-86.7-158.7-110.1 14.3-20.1 26.1-42.8 35.2-67.8 9-24.7 15.1-50.8 18.2-77.7h89.3c19.3 0 35-15.7 35-35s-15.7-35-35-35h-18.3c-0.1-56.7-17.4-111-50-157.2-32-45.2-76.2-79.3-127.8-98.6-30.6-11.4-62.8-17.2-95.7-17.2-33.2 0-65.7 5.9-96.6 17.5-51.5 19.4-95.5 53.6-127.2 98.7-32.4 46.1-49.6 100.3-49.7 156.8H226c-19.3 0-35 15.7-35 35s15.7 35 35 35h77.3c3.1 27.8 9.5 54.6 19 80 9.6 25.6 22 48.8 37 69.2-61 24.3-113.3 62-152.3 110.1-45.3 55.8-69.2 121.6-69.2 190.1 0 19.2 1.9 38.5 5.7 57.3l5.7 28.1h737.3l5.7-28.1c3.8-18.8 5.7-38.1 5.7-57.3-0.2-70.3-25.1-137.3-72.3-193.8zM517.7 140.1c17 0 33.8 2.1 50 6.2l-8.5 69.9h-85l-7.7-69.6c16.7-4.3 33.8-6.5 51.2-6.5zM409 171.6l7.7 69.8c2.2 19.8 18.9 34.8 38.9 34.8h122.2c19.7 0 36.4-14.8 38.8-34.4l8.7-71c58.1 36.3 95.2 100.6 96 170.5H314.2C315 272 351.7 208 409 171.6zM827.2 878H208.3c-0.4-5.1-0.5-10.3-0.5-15.4 0-107 76.5-201.8 195-241.7 17.2-5.8 30.3-19.8 35-37.4 4.7-17.6 0.3-36.2-11.8-49.8-26-29.3-43.9-69.9-51.3-114.9h274.1c-7.2 43.8-24.4 83.6-49.2 112.6-11.9 13.9-15.9 32.6-10.9 50.1 5.1 17.6 18.6 31.4 36.1 36.8C746.2 656 827.7 754.1 827.7 862.6c0 5.1-0.1 10.3-0.5 15.4z" p-id="4199"></path></svg>