<svg t="1598580392003" class="icon" viewBox="0 0 1024 1024" version="1.1" xmlns="http://www.w3.org/2000/svg" p-id="2155" width="200" height="200"><path d="M716.8 654.267733A193.467733 193.467733 0 0 0 705.3312 1001.244444H56.888889V91.022222a91.022222 91.022222 0 0 1 91.022222-91.022222h477.866667a91.022222 91.022222 0 0 1 91.022222 91.022222v563.245511zM170.666667 113.777778a45.511111 45.511111 0 0 0-45.511111 45.511111v227.555555a45.511111 45.511111 0 0 0 45.511111 45.511112h432.355555a45.511111 45.511111 0 0 0 45.511111-45.511112V159.288889a45.511111 45.511111 0 0 0-45.511111-45.511111H170.666667z m250.629689 506.538666a22.755556 22.755556 0 0 1-22.755556-22.755555v-88.4736a6.826667 6.826667 0 0 0-13.038933-2.844445l-73.864534 160.859023a6.826667 6.826667 0 0 0 6.212267 9.671111h57.298489a22.755556 22.755556 0 0 1 22.755555 22.755555v88.450845a6.826667 6.826667 0 0 0 13.038934 2.844444l73.864533-160.859022a6.826667 6.826667 0 0 0-6.212267-9.671111h-57.298488z" p-id="2156"></path><path d="M919.847822 948.451556l33.132089 33.132088a20.002133 20.002133 0 0 1-28.285155 28.285156l-35.794489-35.817244a170.666667 170.666667 0 1 1 30.947555-25.6z" p-id="2157"></path></svg>