<svg t="1595811928691" class="icon" viewBox="0 0 1024 1024" version="1.1" xmlns="http://www.w3.org/2000/svg" p-id="10971" width="200" height="200"><path d="M642.133333 339.2H247.466667c-12.8 0-19.2 8.533333-19.2 19.2s8.533333 19.2 19.2 19.2h390.4c12.8 0 19.2-8.533333 19.2-19.2s-6.4-19.2-14.933334-19.2zM657.066667 544c0-12.8-8.533333-19.2-19.2-19.2H247.466667c-12.8 0-19.2 8.533333-19.2 19.2s8.533333 19.2 19.2 19.2h390.4c12.8 0 19.2-8.533333 19.2-19.2zM247.466667 708.266667c-12.8 0-19.2 8.533333-19.2 19.2 0 12.8 8.533333 19.2 19.2 19.2h294.4c12.8 0 19.2-8.533333 19.2-19.2 0-12.8-8.533333-19.2-19.2-19.2H247.466667z" p-id="10972"></path><path d="M759.466667 838.4c0 36.266667-27.733333 64-59.733334 64H192c-32 0-59.733333-27.733333-59.733333-64V251.733333c0-36.266667 27.733333-64 59.733333-64h115.2v42.666667c0 12.8 8.533333 19.2 19.2 19.2s19.2-8.533333 19.2-19.2V192h204.8v42.666667c0 12.8 8.533333 19.2 19.2 19.2 12.8 0 19.2-8.533333 19.2-19.2V192H704c32 0 59.733333 27.733333 59.733333 64v177.066667l38.4-64v-117.333334c0-55.466667-42.666667-102.4-98.133333-102.4h-115.2V89.6c0-12.8-8.533333-19.2-19.2-19.2s-23.466667 8.533333-23.466667 19.2v64H341.333333v-64c0-12.8-8.533333-19.2-19.2-19.2-8.533333 0-14.933333 8.533333-14.933333 19.2v64H192c-55.466667 0-98.133333 42.666667-98.133333 98.133333v582.4c0 55.466667 42.666667 102.4 98.133333 102.4h507.733333c55.466667 0 98.133333-42.666667 98.133334-102.4v-185.6l-38.4 66.133334v123.733333zM857.6 298.666667l-23.466667 40.533333 102.4 66.133333 23.466667-38.4z" p-id="10973"></path><path d="M627.2 678.4l102.4 66.133333 196.266667-322.133333-102.4-68.266667zM716.8 759.466667l-102.4-66.133334-4.266667 87.466667 40.533334 23.466667z" p-id="10974" ></path></svg>