<svg t="1597653580002" class="icon" viewBox="0 0 1024 1024" version="1.1" xmlns="http://www.w3.org/2000/svg" p-id="3148" width="39" height="39"><path d="M775.939 328.502c0-82.24-37.62-155.677-96.576-204.085l-32.35 153.95-39.036-8.2 35.795-170.319C604.98 77.445 560.008 64.56 511.996 64.56c-49.25 0-95.326 13.527-134.784 37.014l35.427 168.593-39.036 8.2-31.836-151.506c-57.294 48.409-93.713 120.752-93.713 201.64h-48.483v64.648h624.843v-64.647h-48.475zM653.648 625.877c-59.277 89.86-105.742 230.839-105.742 230.839l-10.233-192.414H486.32l-10.233 192.414s-46.465-140.98-105.732-230.84C112.674 658.367 64.28 795.36 64.28 959.472h895.433c0-164.112-48.394-301.104-306.064-333.594z" p-id="3149"></path><path d="M703.87 350.916c2.998 13.625 4.686 27.72 4.686 42.234 0 108.372-88.176 196.549-196.56 196.549S315.431 501.522 315.431 393.15c0-14.513 1.688-28.61 4.69-42.234h-55.794c-2.325 13.85-3.763 27.913-3.763 42.234 0 67.168 26.156 130.294 73.642 177.79 47.492 47.486 110.628 73.643 177.79 73.643 67.162 0 130.298-26.157 177.79-73.643 47.487-47.496 73.642-110.623 73.642-177.79 0-14.321-1.435-28.384-3.763-42.234H703.87zM551.905 737.98h-79.818l-15.35-77.26h110.518z" p-id="3150"></path></svg>