<svg t="1598492580224" class="icon" viewBox="0 0 1093 1024" version="1.1" xmlns="http://www.w3.org/2000/svg" p-id="4558" width="200" height="200"><path d="M567.479948 58.167276a431.461589 431.461589 0 0 1 248.025267 78.316421 647.006248 647.006248 0 0 1 66.776033-21.126355 487.814046 487.814046 0 0 0-652.636841 20.405081 581.672764 581.672764 0 0 1 64.449342 19.707073A434.114017 434.114017 0 0 1 567.479948 58.167276m426.249801 333.717298a462.290246 462.290246 0 0 1 16.054169 119.89439 448.748904 448.748904 0 0 1-432.066529 453.123083V467.664902a443.816319 443.816319 0 0 0 298.514462-44.439799A462.220445 462.220445 0 0 0 1093.544796 166.381677a445.049465 445.049465 0 0 0-329.459454 37.482993 462.546182 462.546182 0 0 0-215.218922 251.794506h-3.955375a462.03431 462.03431 0 0 0-215.451592-251.794506A444.048988 444.048988 0 0 0 0 166.125741a462.127377 462.127377 0 0 0 217.312944 256.843426 443.699984 443.699984 0 0 0 298.514463 44.463066v494.677785A449.842448 449.842448 0 0 1 124.710641 512.104701a457.59033 457.59033 0 0 1 8.841426-89.856808 581.137625 581.137625 0 0 1-47.929836-42.043308 513.221513 513.221513 0 0 0-17.450183 131.900116c0 282.297426 223.827679 511.872032 499.3079 511.872032s499.075231-229.458272 499.075231-511.872032a516.525414 516.525414 0 0 0-26.524278-162.868374 612.105883 612.105883 0 0 1-46.301152 42.764582" p-id="4559"></path></svg>