<svg t="1598315790614" class="icon" viewBox="0 0 1024 1024" version="1.1" xmlns="http://www.w3.org/2000/svg" p-id="1787" width="200" height="200"><path d="M884.4 95.7H637.1c-41.4 0-75 33.6-75 75v148.5h60V170.7c0-8.3 6.7-15 15-15h247.2c8.3 0 15 6.7 15 15v671.6c0 8.3-6.7 15-15 15H637.1c-8.3 0-15-6.7-15-15v-24.6h14.4c41.4 0 75-33.6 75-75V394.8c0-41.4-33.6-75-75-75H139.2c-41.4 0-75 33.6-75 75v347.9c0 41.4 33.6 75 75 75h163.5v49.8h-34.4c-16.6 0-30 13.4-30 30s13.4 30 30 30h238.8c16.6 0 30-13.4 30-30s-13.4-30-30-30h-34.8v-49.8h89.9v24.6c0 41.4 33.6 75 75 75h247.2c41.4 0 75-33.6 75-75V170.7c-0.1-41.4-33.6-75-75-75zM139.2 379.9h497.3c8.3 0 15 6.7 15 15v240.5H124.2V394.8c0-8.2 6.7-14.9 15-14.9z m-15 362.8v-47.4h527.3v47.4c0 8.3-6.7 15-15 15H139.2c-8.3 0-15-6.7-15-15z m288.1 124.8h-49.6v-49.8h49.6v49.8z" p-id="1788"></path><path d="M830.8 279.1c16.6 0 30-13.4 30-30s-13.4-30-30-30H691.5c-16.6 0-30 13.4-30 30s13.4 30 30 30h139.3z" p-id="1789"></path></svg>