<svg t="1597653549904" class="icon" viewBox="0 0 1024 1024" version="1.1" xmlns="http://www.w3.org/2000/svg" p-id="2963" width="39" height="39"><path d="M956.643556 267.207111l-241.322667 241.322667 281.543111 281.6-201.159111 201.159111-281.543111-281.6-201.159111 201.102222-216.405334 50.744889a28.444444 28.444444 0 0 1-34.247111-34.019556l49.493334-217.884444L313.116444 508.586667l-281.6-281.6L232.504889 25.884444l281.6 281.6 241.322667-241.379555 201.159111 201.159111zM280.860444 846.392889L176.298667 741.831111l-2.275556 2.218667-30.947555 136.419555 135.452444-31.744 2.332444-2.275555z m480.768-480.768l-104.561777-104.561778L224.540444 693.475556 329.216 798.151111l432.469333-432.526222z m-303.786666-17.976889L232.504889 122.311111 127.943111 226.986667l48.355556 48.184889 52.224-52.224 48.298666 48.241777-52.280889 52.280889 32.199112 32.199111 52.224-52.280889 48.298666 48.298667-52.280889 52.224 48.241778 48.355556 104.618667-104.675556z m442.481778 442.481778l-225.28-225.28-104.561778 104.618666 48.298666 48.241778 52.224-52.280889 48.298667 48.298667-52.280889 52.224 32.199111 32.199111 52.280889-52.280889 48.241778 48.298667-52.224 52.224 48.184889 48.355555 104.618667-104.618666z m-40.220445-522.922667l-104.618667-104.618667-50.119111 50.176 104.561778 104.561778 50.176-50.119111z" p-id="2964"></path></svg>