<svg t="1595813595438" class="icon" viewBox="0 0 1024 1024" version="1.1" xmlns="http://www.w3.org/2000/svg" p-id="8526" width="200" height="200"><path d="M899.2 203.2L530.4 65c-8.4-3.1-17.6-3.2-26-0.1L124.6 203.4c-14.8 5.4-24.6 19.4-24.6 35.2v550.3c0 15.8 9.9 29.8 24.7 35.2l365.5 132.4c8.2 3 16.9 4.5 25.5 4.5 8.8 0 17.6-1.5 26-4.6l357.4-132.2c14.7-5.4 24.5-19.4 24.5-35.1V238.3c-0.1-15.6-9.8-29.6-24.4-35.1zM517.1 140l277.2 103.9L513.9 341c-0.8 0.3-1.5 0.6-2.2 0.9l-288.4-94.8L517.1 140zM174.9 310l299.7 98.5v462.7L174.9 762.6V310z m374.6 563.6V407.9l299.2-103.7V763L549.5 873.6z" p-id="8527"></path></svg>