<svg t="1598237978691" class="icon" viewBox="0 0 1024 1024" version="1.1" xmlns="http://www.w3.org/2000/svg" p-id="2136" width="200" height="200"><path d="M105.162159 1023.277347c-45.52717 0-82.382498-36.855328-82.382498-82.382499V127.187015C22.779661 81.659845 59.634989 45.52717 105.162159 45.52717h153.202541l2.16796-4.335921c14.45307-25.292872 41.191249-41.191249 70.820043-41.191249h361.326746c28.90614 0 56.366972 15.898377 70.820043 41.191249l2.16796 4.335921h152.479887c45.52717 0 82.382498 36.855328 82.382498 82.382498v813.707834c0 45.52717-36.855328 82.382498-82.382498 82.382498H105.162159z m-7.949188-74.43331l829.60621-0.722654-0.722653-828.883557-151.03458 0.722654v52.753705c0 22.402258-8.671842 42.636556-23.847566 58.534933s-36.132675 24.570219-58.534933 24.570219h-361.326746c-45.52717 0-82.382498-36.855328-82.382499-83.105152v-52.753705h-151.757233v828.883557zM322.680861 179.94072l377.947777 0.722653V75.155963L319.067593 74.43331l3.613268 10.117149v95.390261z m125.019054 575.954834c-10.117149 0-20.234298-4.335921-27.460833-12.285109L299.555949 607.751588c-6.503881-7.226535-10.117149-17.343684-9.394495-26.738179 0.722653-10.117149 5.058574-18.788991 12.285109-26.015526 6.503881-5.781228 15.898377-9.394495 24.570219-9.394496 10.839802 0 20.956951 4.335921 28.183486 12.28511l93.222301 104.784756L665.94127 424.920254l2.167961-2.890614c7.226535-7.949188 17.343684-12.285109 27.460832-12.285109 9.394495 0 18.066337 3.613267 25.292873 10.117149 7.226535 6.503881 11.562456 15.898377 12.285109 26.015525s-2.890614 19.511644-9.394495 26.73818l-247.870149 270.99506c-7.226535 7.949188-17.343684 12.285109-28.183486 12.285109z" p-id="2137"></path></svg>